<svg xmlns="http://www.w3.org/2000/svg" xmlns:xlink="http://www.w3.org/1999/xlink" version="1.1" x="0" y="0" width="29px" height="36px" viewBox="0 0 29 36" enable-background="new 0 0 29 36" xml:space="preserve"><style>.a{fill:#58A8D0}.b{fill:#8DC0BB}.c{fill:#FFC185}.d{fill:#E86693}.e{fill:#F18070</style><path d="M15.01 13.739l5.192 3.067l2.575-1.486l-7.768-4.546V13.739z M15.01 18.602l1.038 0.603l2.667-1.54l-3.705-2.259V18.602z M23.855 9.462c-3.33-4.119-7.638-7.911-8.846-8.795v8.442 l9.249 5.355l2.03-1.172C25.666 12 24.9 10.7 23.9 9.462z" class="a"/><path d="M25.03 27.252V15.345l2.015-1.184 c0.895 2.4 1.3 4.4 1.3 6.551c0 2.889-0.618 5.071-1.695 7.419L25.03 27.252z M24.017 26.695l-2.962-1.854v-7.26 l2.962-1.748V26.695z M20.009 18.337v5.785l-2.998-1.709v-2.3L20.009 18.337z" class="b"/><path d="M15.021 33.527v2.172c4.626-0.088 8.417-2.686 10.692-6.549 l-1.692-0.978L15.021 33.527z M15.021 24.024v3.206l3.454-2.26l-2.424-1.543L15.021 24.024z M15.021 31.83l7.489-4.529l-2.547-1.471 l-4.942 3.066V31.83z" class="c"/><path d="M8.649 16.806l5.192-3.067v-2.965L6.074 15.32L8.649 16.806z M12.804 19.205l1.038-0.603v-3.196l-3.705 2.259L12.804 19.205z M4.996 9.462C3.992 10.7 3.2 12 2.6 13.292l2.03 1.2 l9.249-5.355V0.667C12.634 1.6 8.3 5.3 5 9.462z" class="a"/><path d="M2.205 28.131c-1.077-2.348-1.695-4.53-1.695-7.419 c0-2.176 0.402-4.115 1.297-6.551l2.015 1.184v11.907L2.205 28.131z M4.835 15.833l2.962 1.748v7.26l-2.962 1.854V15.833z M11.841 20.114v2.3l-2.998 1.709v-5.785L11.841 20.114z" class="d"/><path d="M4.83 28.172L3.138 29.15c2.275 3.9 6.1 6.5 10.7 6.5 v-2.172L4.83 28.172z M12.8 23.427l-2.424 1.543l3.454 2.26v-3.206L12.8 23.427z M13.83 28.896L8.888 25.83L6.341 27.3l7.489 4.5 V28.896z" class="e"/></svg>